<svg xmlns="http://www.w3.org/2000/svg" xmlns:xlink="http://www.w3.org/1999/xlink" version="1.2" width="76.91mm" height="123.42mm" viewBox="0.0000 -0.0000 8.7535 14.0468">
<line transform="translate(0.0000, 9.0234)" stroke-linejoin="round" stroke-linecap="round" stroke-width="0.0474" stroke="currentColor" x1="0.0237" y1="-0.0000" x2="8.7535" y2="-0.0000"/>
<line transform="translate(0.0000, 8.0234)" stroke-linejoin="round" stroke-linecap="round" stroke-width="0.0474" stroke="currentColor" x1="0.0237" y1="-0.0000" x2="8.7535" y2="-0.0000"/>
<line transform="translate(0.0000, 7.0234)" stroke-linejoin="round" stroke-linecap="round" stroke-width="0.0474" stroke="currentColor" x1="0.0237" y1="-0.0000" x2="8.7535" y2="-0.0000"/>
<line transform="translate(0.0000, 6.0234)" stroke-linejoin="round" stroke-linecap="round" stroke-width="0.0474" stroke="currentColor" x1="0.0237" y1="-0.0000" x2="8.7535" y2="-0.0000"/>
<line transform="translate(0.0000, 5.0234)" stroke-linejoin="round" stroke-linecap="round" stroke-width="0.0474" stroke="currentColor" x1="0.0237" y1="-0.0000" x2="8.7535" y2="-0.0000"/>
<path transform="translate(0.8000, 6.0234) scale(0.0040, -0.0040)" d="M280 297c12.8 1.6 25.6 2.4 38.4 2.4l57.6 -5.4c51 -10 96 -35 134 -73c25 -25 47 -55 64 -89c39.0625 -75.7812 58.5938 -167.432 58.5938 -274.474c0 -29.972 -1.53125 -61.1507 -4.59375 -93.5257c-11 -121 -43 -225 -95 -312c-22 -37 -53 -78 -92 -124
c-27 -32 -69 -70 -126 -114c-55.0304 -42.5235 -95.4613 -63.4954 -121.293 -63.4954c-5.14918 0 -9.71825 0.833327 -13.7072 2.49539l-9 4l1 32c1 36 5 68 11 98c2 12 4 18 4 19s6 4 19 11c84 42 159 100 224 175c81 94 127 187 141 279
c2.13333 14.4 3.2 28.8711 3.2 43.3944c0 39.939 -8.06667 80.2723 -24.2 120.606c-36 88 -101 143 -194 162c-16 3 -37 5 -62 5s-43 -1 -55 -5c-35 -11 -68 -29 -102 -54s-56 -50 -69 -75c-8.46929 -16.9386 -13.1187 -31.3306 -13.1187 -43.4525
c0 -6.48471 1.33057 -12.3198 4.1187 -17.5475c2 -5 9 -13 20 -26c20 -23 31 -49 32 -76c0.21525 -6.02701 0.337835 -11.8687 0.337835 -17.5151c0 -20.5853 -1.62934 -38.5747 -6.33784 -53.4849c-4 -14 -11 -22 -20 -22c-8 0 -19 7 -32 21s-24 28 -32 44
c-14 29 -21 63 -21 103c0 90 19 171 57 244c54 104 128 161 223 173zM862 215c5.38262 0.63325 10.264 0.965745 14.6124 0.965745c9.38513 0 16.2874 -1.54887 20.3876 -4.96575c6 -5 9 -17 9 -34c0 -22 -3 -44 -10 -67s-14 -37 -22 -43c-7 -5 -36 -9 -85 -14
c-14 -1 -24 -1 -30 1c-10 4 -16 12 -18 24c-0.291796 1.75078 -0.434588 3.7357 -0.434588 5.95167c0 12.9725 4.89357 33.863 13.4346 62.0483c10 33 18 52 25 56c5 3 25 7 59 11c12 1 20 2 24 2zM861 -49c13 1 20 1 22 1c8 -1 14 -4 17 -9c3 -4 5 -15 5 -32
c0 -25 -4 -48 -11 -71c-8 -24 -18 -38 -30 -41c-30 -8 -60 -11 -90 -11c-19 0 -30 8 -33 26c-0.285714 1.85714 -0.428571 3.95918 -0.428571 6.30612c0 14.0816 5.14286 36.9796 15.4286 68.6939c9 30 18 46 25 50c9 5 36 8 80 12z" fill="currentColor"/>
</svg>
